<?xml version="1.0" encoding="UTF-8"?>
<svg id="Layer_2" data-name="Layer 2" xmlns="http://www.w3.org/2000/svg" viewBox="0 0 834.61 420.78">
  <defs>
    <style>
      .cls-1 {
        fill: #42c3ee;
      }

      .cls-1, .cls-2, .cls-3 {
        stroke-width: 0px;
      }

      .cls-2 {
        fill: #47c1ee;
      }

      .cls-3 {
        fill: #3069fe;
      }
    </style>
  </defs>
  <g id="Final">
    <g>
      <path class="cls-3" d="m279.77.74c23.6-.52,47.26-.25,70.87-.3,16.79-.04,35.11-1.61,51.59,1.49,11.7,2.2,23.3,7.06,32.51,14.69,15.27,12.66,21.45,30.35,23.12,49.62,1.76,20.36.78,41.52.78,61.95,0,22.92,2.43,57.09-3.15,78.69-3.11,12.04-8.8,21.02-16.72,30.37-.41.41-.82.82-1.23,1.23-4.29,4.21-20.49,19.92-41.33,19.03-1.15-.05-3.13-.18-5.6-.64-.04-3.66-.09-7.31-.13-10.97l.25-127.5c0-9.09,1.54-39.87-.75-46.96-.93-2.89-7.27-3.09-9.93-3.29-29.89-2.2-59.72,3.14-82.76-20.81-12.43-12.92-17.77-28.9-17.51-46.59Z"/>
      <path class="cls-3" d="m486.84,305.16l32.35-.11c-1.08,11.32-4.27,23.07-6.46,34.25-5.22,26.6-10.91,53.22-15.35,79.95-8.86.18-17.74.05-26.6.04,3.53-14.5,6.04-29.32,8.86-43.98,1.89-9.83,3.91-19.64,6.05-29.43-15.22,19.64-28.42,41.65-42.36,62.28l-18.2.1c-6.94-20.59-11.34-42-18.26-62.59-4.26,24.64-9.25,49.26-14.33,73.74-8.76-.05-17.52-.02-26.28.07,8.66-37.77,15.14-76.29,22.34-114.37,10.77.16,21.56,0,32.33-.01,5.9,22.69,13.04,45.63,20.51,67.86,14.66-22.92,30.38-45.11,45.42-67.78Z"/>
      <path class="cls-3" d="m819.7,330.98c-4.65,0-9.25-.02-13.8-.07l-2.76,15.08c-4.85-7.41-9.56-12.79-18.58-14.67-3.57-.74-7.23-.79-10.87-.86-12.55.99-23.58,5.81-31.88,15.49-9.37,10.94-13.33,26.28-12.07,40.47.9,10.25,5.12,20.56,13.27,27.14,5,3.99,11.01,6.38,17.27,6.96,0,0,3.31.31,6.82-.09,10.43-1.17,20.56-9.02,22.51-10.57-.33,3.33-.67,6.67-1,10,9.64-.21,19.29-.43,28.93-.64,5.69-29.45,11.38-58.91,17.07-88.36-4.92.07-9.89.11-14.91.12Zm-22.09,45.88c-2,12-12.06,21-22,21-12,0-18-10-16-22,1.95-11.71,11-21,22-21s17.95,10.29,16,22Z"/>
      <path class="cls-3" d="m611.95,330.48c15.49-1.04,30.71,5.31,43.03,14.19-4.29,5.5-8.24,11.35-12.29,17.03-1.21-.74-2.42-1.45-3.65-2.13-6.78-3.86-19.01-11.06-26.81-8.6-1.55.49-2.88,1.46-2.88,1.46-.58.59-1.56,1.77-1.73,3.43-.29,2.76,1.86,4.88,3,6,2.84,2.79,6.12,3.74,7,4,.57.17,12.75,3.84,19.33,9.15,1.22.99,8.21,6.62,8.86,15.6.49,6.8-2.95,13.98-7.46,18.92-7.47,8.2-17.85,10.39-28.48,10.86-17.79-.8-30.43-5.94-44.61-16.41,3.83-6.04,8.1-11.88,12.16-17.77,7.7,7.42,20.26,14.12,31.24,13.83,2.83-.08,5.95-1.01,7.82-3.3.69-.85,1.03-1.77.86-2.86-.98-6.11-22.26-12.78-27.78-16.79-5.52-4.01-9.81-9.58-10.65-16.53-.81-6.7,2.24-13.98,6.55-19.03,6.71-7.88,16.62-10.24,26.49-11.05Z"/>
      <path class="cls-3" d="m681.69,310.91c9.66.17,19.31.16,28.97,0-1.74,8.17-3.33,16.38-4.77,24.61l22.7-.04c-1.11,6.35-2.48,12.63-3.89,18.92l-22.64.04c-1.77,7.59-9.02,32.95-6.37,39.24.62,1.48,1.75,2.63,3.28,3.15,4.15,1.42,9.35-1.64,12.93-3.53.44,4.31,1.22,8.58,1.94,12.85l1.17,9.15c-9.95,4.06-21.06,6.78-31.85,4.85-5.53-.98-10.26-3.68-13.43-8.41-9.26-13.81.14-42.08,3.26-57.21l-11.68-.11c.79-6.33,2.21-12.7,3.36-18.98l12.31.05c1.62-8.18,3.2-16.37,4.71-24.57Z"/>
      <path class="cls-3" d="m537.05,330.97h28.92c-6.49,29.36-10.93,59.21-17.95,88.45l-28.55-.12c6.61-29.16,12.02-58.95,17.57-88.33Z"/>
      <path class="cls-3" d="m554.7,291.23c3.24-.4,6.52-.68,9.63.48,2.91,1.09,5.37,3.18,6.63,6.05,1.66,3.77,1.25,8.17-.34,11.9-2.59,6.07-7.01,8.97-12.86,11.28-3.27.5-6.49.71-9.6-.61-2.93-1.24-5.09-3.32-6.26-6.29-1.47-3.76-1.07-7.98.45-11.65,2.53-6.11,6.55-8.69,12.34-11.17Z"/>
    </g>
    <g>
      <path class="cls-1" d="m41.33,312.34H0l1.64-7.54h91.02l-1.48,7.54h-41.33l-21.48,107.26h-8.36l21.32-107.26Z"/>
      <path class="cls-1" d="m81.61,378.6c-.22,2.41-.33,4.21-.33,5.41,0,9.29,2.68,16.43,8.04,21.4,5.36,4.98,13.23,7.46,23.62,7.46,6.01,0,11.56-1.01,16.65-3.03,5.08-2.02,9.32-4.84,12.71-8.45l3.77,5.74c-3.83,4.16-8.72,7.38-14.68,9.68-5.96,2.3-12.33,3.44-19.11,3.44-12.14,0-21.68-3.17-28.62-9.51-6.94-6.34-10.41-15.14-10.41-26.4,0-9.62,2.02-18.31,6.07-26.08,4.04-7.76,9.62-13.86,16.73-18.29,7.11-4.43,15.09-6.64,23.94-6.64,11.15,0,20.01,3.17,26.57,9.51,6.56,6.34,9.84,15.09,9.84,26.24,0,2.62-.33,5.8-.98,9.51h-73.8Zm14.19-29.52c-6.72,5.8-11.13,13.5-13.2,23.12h65.93c.11-.98.16-2.4.16-4.26,0-8.64-2.62-15.39-7.87-20.25-5.25-4.86-12.25-7.3-20.99-7.3-9.29,0-17.3,2.9-24.03,8.69Z"/>
      <path class="cls-1" d="m179.73,410.58c-6.94-6.45-10.41-15.09-10.41-25.91,0-9.73,2.1-18.5,6.31-26.32,4.21-7.82,10.06-13.94,17.55-18.37,7.49-4.43,15.93-6.64,25.34-6.64,7.65,0,14.21,1.34,19.68,4.02,5.47,2.68,9.73,6.7,12.79,12.05l-6.72,4.1c-5.14-8.53-13.89-12.79-26.24-12.79-7.76,0-14.71,1.89-20.83,5.66-6.12,3.77-10.93,8.94-14.43,15.5-3.5,6.56-5.25,14-5.25,22.3,0,9.08,2.68,16.13,8.04,21.16,5.36,5.03,13.01,7.54,22.96,7.54,5.68,0,11.01-1.09,15.99-3.28,4.97-2.19,9.1-5.25,12.38-9.18l5.74,4.59c-3.72,4.81-8.67,8.56-14.84,11.23-6.18,2.68-12.82,4.02-19.93,4.02-11.81,0-21.18-3.22-28.13-9.68Z"/>
      <path class="cls-1" d="m345.87,340.63c5.25,4.87,7.87,11.56,7.87,20.09,0,2.95-.33,6.07-.98,9.35l-9.84,49.53h-8.2l9.84-49.53c.55-2.51.82-5.25.82-8.2,0-6.78-2.05-12-6.15-15.66-4.1-3.66-10.09-5.49-17.96-5.49-9.84,0-18.04,2.76-24.6,8.28-6.56,5.52-10.88,13.53-12.96,24.03l-9.35,46.58h-8.2l24.27-121.69h8.2l-11.03,54.95c8.09-11.04,20.48-19.53,35.79-19.53,9.73,0,17.22,2.43,22.47,7.3Z"/>
    </g>
    <path class="cls-2" d="m479.79.11c2.07,0,5.76-.01,10.5,0,6.11.02,8.31.06,11.25,1.1,3.21,1.14,5.09,2.7,5.55,3.09,2.05,1.73,3.46,3.8,4.29,5.73,1.51,3.48,1.58,6.55,1.59,8.33.02,3.25.2,25.59.24,29.36.02,2.08.07,4.56-.97,7.62-1.41,4.16-4.01,6.98-5.75,8.56-1.38,1.09-2.75,2.03-4.66,2.8-1.83.74-3.33,1.32-5.56,1.07-.43-.02-.86-.04-1.28-.06v-1.76c.41-20.15.49-36.28.59-47.03.02-2.16.06-6.54-2.63-10.7-3.53-5.43-9.72-7.36-13.16-8.11Z"/>
    <path class="cls-2" d="m509.18.11c2.07,0,5.76-.01,10.5,0,6.11.02,8.31.06,11.25,1.1,3.21,1.14,5.09,2.7,5.55,3.09,2.05,1.73,3.46,3.8,4.29,5.73,1.51,3.48,1.58,6.55,1.59,8.33.02,3.25.2,25.59.24,29.36.02,2.08.07,4.56-.97,7.62-1.41,4.16-4.01,6.98-5.75,8.56-1.38,1.09-2.75,2.03-4.66,2.8-1.83.74-3.33,1.32-5.56,1.07-.43-.02-.86-.04-1.28-.06v-1.76c.41-20.15.49-36.28.59-47.03.02-2.16.06-6.54-2.63-10.7-3.53-5.43-9.72-7.36-13.16-8.11Z"/>
    <path class="cls-2" d="m432.77,0c14.84.17,26.11.29,32.55.14,1.14-.03,4.29-.12,7.94,1.23,4.59,1.69,7.06,4.57,7.56,5.16.87,1.04,1.66,2.27,2.43,3.96,2,4.42,2.19,8.5,2.33,13.72.08,2.91.19,7.45,0,19.99-.06,3.9-.13,6.88-1.39,10.59-1.36,3.99-3.24,6.28-3.9,7.04-.57.66-2.05,2.28-4.41,3.77-1.87,1.18-3.61,1.86-4.91,2.26,0-6.07-.67-12.33-1.74-18.37C465.97,31.16,457.88,12.12,432.77,0Z"/>
  </g>
</svg>